<?xml version="1.0" encoding="UTF-8"?><svg id="_Слой_1" xmlns="http://www.w3.org/2000/svg" viewBox="0 0 565.16 634.06"><defs><style>.cls-1{fill:#138730;}.cls-1,.cls-2,.cls-3,.cls-4,.cls-5,.cls-6,.cls-7,.cls-8,.cls-9,.cls-10,.cls-11,.cls-12,.cls-13,.cls-14{stroke-width:0px;}.cls-2{fill:#7ebc27;}.cls-3{fill:#f6fbf4;}.cls-4{fill:#b1d420;}.cls-5{fill:#3f414e;}.cls-6{fill:#c4da21;}.cls-7{fill:#a2cf1e;}.cls-8{fill:#c7d643;}.cls-9{fill:#4fab30;}.cls-10{fill:#6aba34;}.cls-11{fill:#2d9b2c;}.cls-12{fill:#0b7c37;}.cls-13{fill:#93cc23;}.cls-14{fill:#d2db20;}</style></defs><path class="cls-12" d="m189.54,347.54c9.48,35.28,23.33,59.25,50.13,84.96,3.93,3.77,7.11,7.44,10.75,11.31,8.06,8.55,16.17,16.55,21.86,26.93,2.52,4.6,3.04,9.57,6.91,14.51,1.87-15.02-5.31-38.82-14.89-48.74-.34-2.05,1.86-2.61,3.6-3.58,2.21-1.23,2.54-4.18,4.94-4.64l13.7,13.37c1.4-7.3,4.3-13.22,6.26-19.32l6.77,2.19c.99.32,2.27-.06,2.92.64.27.3,0,1.16-.02,1.56-6.12,17.2-7.56,36.11-3.55,54.19,1.7,7.68,5.54,13.73,9.06,21.18-15.72,2.64-40.42,2.27-56.6-.25,2.99-4.63,5.84-8.45,6.33-13.13,1.56-9.51.92-7.01.96-3.13,0,.62-.3-1.25-.23-1.87,1.1-1.19,1.45-2.97.37-4.17l-.15-2.85c-.34-6.92-4.95-12.73-11.15-15.27-1.17-2.72-4.24-4.19-7.05-4.78-.52-.11-1.24.1-1.71-.13-.31-1.42-1.66-2.81-3.44-3.43-12.88-4.35-24.8-10.46-37.65-13.44.09-.63-.06-1.53-1-2.02-6.76-3.55-13.59-6.74-19.81-11.23l-11.54-8.34c-12.39-8.96-14.35-13.73-24.51-21.52-2.46-7.24-10.04-11.47-17.54-26.7-1.52-3.08-4.01-5.56-5.04-9.01-.55-1.86-2.16-2.81-3.59-3.24-7.95-16.58-12.25-34.92-15.27-52.91,2.97-2.06,5.19,13.92,5.24,12.99-1.36,24.54,10.57,21.08,12.26,34.71,2.71.51,6.4.32,8.04,2.96,2.17,3.48,7.07,4.62,9.21,7.54,2.83,3.87,6.05,4.45,9.64,6.71s6.25,2.66,10.48,3.87l16.86,4.81,7.18,5.86c2.76,2.26,9.23,1.23,13.25.31,6.89-1.58-.76-20.34-16.95-24.86-17.17-4.79-25.7-5.83-41.1-14.9-3.86-2.28-19.65-15.98-15.84-18.94,15.53,18.83,33.41,20.67,57.13,25.1-2.39-13.2-20.43-17.66-29.73-34.28-6.25-11.18-10.68-23.11-11.28-36.02,3.51,9.08,5.44,18.7,10.74,27.17,14.18,22.67,28.02,20.18,42.63,43.25,1.64-1.37,1.37-2.85,2.44-3.42h-.02Z"/><path class="cls-11" d="m142.85,198.63c.03,5.12-1.29,3.57-.06,2.09-.04.79-.32,2.27-.15,3.09-.95,1.07-1.21,2.52-1.63,4.35-2.59-1-4.54-.28-5.71,2.02-4.74,9.35-5.43,19.24-3.9,29.46.49,3.3,2.19,5.02,3.27,8.11l3.34,9.54c-.04-.13,9.31,18.05,10.97,19.78,2.54,2.66,5.94,3.93,8.44,6.9l6.12,1.69c3.73,1.03,2.2,9.11,5.33,11.91,1.79,1.61,6.33.91,7.78,4.12.38,1.61-1.29,5.67,1.99,4.95.58.42.47,1.35.86,1.84-.92-.26-1.19,1.11-.88,1.63.42.7,1.25,1.15,1.88.67-.03.6-.01,1.21.07,1.8-1.39-.11-1,1.28.15,1.03.08.54.28,1.16.22,1.71-.07.69-.47,1.54.16,2.3.31.38.89.57,1.38.17l6.26,26.78c-1.31-.18-1.32.92-.04,1.08.38.58.66,1.22.83,1.88-1.07.57-.8,2.05-2.44,3.42-14.61-23.08-28.44-20.59-42.63-43.25-5.3-8.47-7.23-18.09-10.74-27.17.6,12.9,5.02,24.83,11.28,36.02,9.29,16.62,27.34,21.08,29.73,34.28-23.72-4.43-41.6-6.27-57.13-25.1-1.67-2.03-4.27-5.72-6.46-7.58-7.45-18.8-6.38-55.41-2.08-75.42l5.61-26.18c.51-2.36,5.38-18.68,1.82-18.07,9.36-21.8,22.47-43.02,42.22-60.22-8.31,20.52-15.57,39.35-15.86,60.37h0Z"/><path class="cls-6" d="m299.61,33.71c-2.45-.82-4.31-2.92-7.29-1.88-1.77.62-2.96,2.92-5.11,4-1.13-1.67-2.16-.98-.8.83-2.86,19.13-1.76,27.54-6.71,46.83-4.79,18.64-10.92,36.62-21.28,52.41-3.09,1.52-3.57-2.01-5.31-3.55-2.88-2.56-5.22-4.77-7.29-8.11-.62-.99-3.6-.07-4.39-.8-1.26-1.16-3.16-13.5-3.63-15.79-.15-.73.17-1.56-.29-2.38-.29-.51-1.1-.9-1.85-.66-3.42,1.1-5.86-1.5-9.06-2.92s-6.49-2.88-7-5.63c-1.37-7.33,6.74-9.96,15.58-18.88,1.97-1.99,3.5-4.32,5.82-6.23,4.61-3.79-8.02-3.6,13.24-19.56,2.38-1.79,2.12-4.15,3.34-5.68l16.92-21.23,9.16-13.87c6.15,7.49,11.89,14.89,15.95,23.1h0Z"/><path class="cls-14" d="m299.61,33.71c-.24,1.51,4.05,11.49,6.03,10.09.06.18-.02.41.06.58l9.41,20.86c.63,1.39,1.09,2.73,2.56,2.39.31.87.51,1.97.91,2.78-.98-.09-.75,1.05-.81,1.56-.06.46.71.97.94,1.63,5.05,14.43,8.47,29.06,9.65,44.28.07.91.87-1.01,1.17-.78,1.74.43,1.12,10.18.03,4.17-11.37-.13-2.58,24.66-11.28,25.75-2.45.31-5.86-.27-8.64-.79-4.43-.82-6.6-7.66-4.86-11.29,1.31-2.73,4.4-3.75,4.17-7.43-3.06,3.15-6.41,4.58-10.37,6.23-9.18,3.84-.78,4.19-16.02.88,1.15-7.2,4.43-13.81,6.55-21.18,2.29-7.96,2.4-16.45,3.35-24.73.8-7.08-.96-14.11-.88-21.16.12-11.17-.63-21.65-4.38-31.74,2.16-1.07,3.34-3.38,5.11-4,2.98-1.04,4.84,1.06,7.29,1.88v.02Z"/><path class="cls-1" d="m117.6,325.72c-3.81,2.95,11.98,16.66,15.84,18.94,15.4,9.08,23.93,10.11,41.1,14.9,16.19,4.52,23.84,23.28,16.95,24.86-4.02.92-10.48,1.95-13.25-.31l-7.18-5.86-16.86-4.81c-4.23-1.21-6.75-1.52-10.48-3.87s-6.81-2.84-9.64-6.71c-2.13-2.92-7.03-4.05-9.21-7.54-1.64-2.64-5.34-2.45-8.04-2.96-1.69-13.62-13.62-10.17-12.26-34.71-.05.93-2.27-15.05-5.24-12.99-8.58-37.77.52-68.74,15.48-103.83,1.24.95,1.49-1.68,1.67-2.36,3.57-.61-1.31,15.71-1.82,18.07l-5.61,26.18c-4.29,20.01-5.36,56.62,2.08,75.42,2.19,1.86,4.79,5.55,6.46,7.58h.01Z"/><path class="cls-9" d="m229.42,231.86c6.68-.9,13.54-.79,20.59-1.77l10.2-1.42c-1.35,2.72-4.17,3.21-6.61,3.75l-9.95,2.21c-4.97,1.11-9.92,2.03-14.31,4.82.84,3.97,10.43,18.46,14.39,17.95,5.45-.69,15.08-13.01,25.1-7.52-2.22,3.39-6.16,5.46-9.81,8.06-10.37,7.4-22.47,15.89-30.83,25.16l-6.73-1.89c-4.45,6.32-8.84,16.73-10.88,24.41-.94,3.53-8.68,4.21-11.85,1.19l-.16-16.44c.53-20.18,5.73-39.71,15.06-57.69.78.95,1.78-.61,1.7-1.35-.46-2.6,2.55-3.87,3.32-5.79,1.61.09,3.52-.48,5.08.68-1.14,3.55-2.26,5.9-1.97,9.29,2.98-.92,5.76-1.75,7.68-3.68l-.02.03Zm-8.83,4.26c0-.65-1-.65-1,0s1,.65,1,0Z"/><path class="cls-7" d="m233.61,114.78c-8.31,27.56,2.76,42.14-2.19,53.04-11.06-1.77-15.87,4.64-20.76,2.37-1.08-.5-1.17-2.46-2.23-3.71-1.3-1.52-3.59-.44-6.03-.92-4.33-13.52.92-14.15-1.17-23.94-.53-2.5.23-5.77,1.36-8,.74-1.47,3.16-2.37,1.67-5.13-1.77,1.2-2.34,3.37-2.67,5.13-.21.37-.81,1.12-1.22,1.28-2.49.18-2.81,3.59-3.48,6.14l-7.63,2.12c-6.66,1.85-10.38,8.9-15.58,14.34-3-3.01-2.63-6.77-1.15-9.83l6.92-14.27c1.25-2.58-2.01-5.82-.76-8.5,2.44-5.23,11-13.03,10.69-17.07.63-.63,1.36-1.77,2.1-2.22,1.79.29,2.31-.55,2.09-2.13,3.62-4.43,7.1-9.42,12.22-12.08.4.08,2.05-.39,2.5.23,2.53,3.5.33,6.86-2.24,9.45-3.22,3.24-5.76,6.76-9.34,9.63-2.06,1.65-2.62,3.78-2.29,6.29.36,2.68,11.64,9.62,13.35,10.07,2.77.73,21.12-7.87,18.82-8.4l3.36.77c1.34.31.75-5.25,3.65-4.66h.01Z"/><path class="cls-10" d="m338.76,315.71c-2.75,1.85-6.02,2.72-9.32,2.9-3.62.2-9.62-.42-12.62,1.84-3.47,6.65-6.7,12.85-13.15,15.36-2.94-1.78-2.56-4.92-2.93-8.04l4.74-6.9c-7.21-2.21-15.26-.66-20.57,4.77-5.98,1.02-4.99-2.81-9.11-2.13l-.22-7.74.03-14.83-5.8-2.32c-.1-.37-.76-1.02-1.14-1.11-2.4-4.54-3.94-9.13-1.92-13.94,1.3,2.01,4.83,2.96,6.8,1.23-.31,5.53-.12,8.75,6.51,8.91,1.98.08,2.98-2.51,4.8-3.25,2.1-.51,4.78.37,6.7,1.09-.67,6.01-5.76,6.19-5.92,10.21-.12,2.9-.13,5.79,0,8.69.04.88-.53,1.68.38,3.5l10.78-3.15c2.62-.02,5.24-.04,7.85-.2.73-.05,1.67.35,2.28-.03s2.55-9.69-3.05-11.79c-.29-1.09-.57-3.18-1.21-4.06,1.32-1.84,3.35-2.27,5.23-3.06.51,1.77.88,4.15,2.56,4.64,2.23.65,4.37.11,5.15-1.87,1.73.19,3.47.22,5.21.16-.88,4.9-5.99,5.91-2.5,15.27,2.69,1.27,8.62-.88,10.22-3.33,1.22-11.32-.41-22.73.33-33.79,1.1-.38,1.04-2.2,1.06-3.24,2.77-1.18,5.8-1.09,8.58.04l.68,31.05c10.12-9.08,13.39-22.08,12.6-34.75,9.81-1.02,6.52-6.29,8.98-7.34,1.19,20.79-.35,39.11-19.22,52.91-1.61,1.18-2.95,2.47-2.79,4.3Z"/><path class="cls-2" d="m195.52,179.35c2.68,5.24,4.05,11.35,5.69,17.35,3.85,14.06-8.9,26.25-12.52,36.91-5-1.8-10.09-2.84-15.7-3.53-2.08-.26-2.87-3.59-4.17-4.7-8.08-6.87-.54-14.54-10.16-20.89-1.54-2.25-.12-5.26-2.12-6.87-.35-3.09,1.01-6.65-.96-9.2l.08-6.64c1.07.57,2.12-.4,1.9-1.63-.1-.56-.56-1.24-1.07-1.75.81-7.56,1.75-15.73,5.04-22.61,7.07,3.45,1.75,13.23,5.5,17.53,2.13,2.44,5.39,1.79,8.11,2.88,3.62,1.45,5.88.63,9.46.57s7.2,3.68,10.9,2.57h.02Z"/><path class="cls-9" d="m441.59,287.85l.29,35.81c.04,6.03-1.25,11.5-1.78,17.03-5.1,25.62-14.03,51.4-33.78,69.35-7.5-2.29-16.11-.74-18.48-1.3-4.51-1.06-10.17-5.38-11.36-10.14-1.07-4.24,14.36-9.86,23.08-18.46,2.15-2.11,4.75-2.93,6.66-4.37-1.52,4.23,2.18,7.15,5.74,8.52,4.36,1.68,7.59-1.89,9.78-5.28,5.45-8.46,9.22-17,10.95-27.01,1.45-8.38,4.39-16.33,1.86-24.84-.89,4.69-3.05,7.71-4.39,11.17-1.87,4.84-2.62,9.82-5.79,14.39-3.99,5.74-7.16,12.66-13.1,15.95,2.29-4.25,2.25-8.66.62-13.19,16.95-25.73,19.66-38.21,19.59-68.68,1.33.68,1.72,2.47,3.5,3.08,2.29-1.52,4.43-2.63,6.63-2.03h-.02Z"/><path class="cls-11" d="m411.7,368.66c-1.19,2.22-2.81,5.43-5.05,7.11-1.91,1.43-4.51,2.25-6.66,4.37-8.73,8.6-24.15,14.22-23.08,18.46,1.2,4.76,6.85,9.08,11.36,10.14,2.37.56,10.99-.99,18.48,1.3-5.89,5.35-10.19,13.15-18.17,15.89-2.71,0-3.92-1.6-5.59-3.97s-6.25-4.06-9.07-3.07c-11.58,4.07-24.24,5.16-31.38,10.95-2.92.6-6.53,2.03-9.13,3.6-3.88-2.18,9.99-13.17,14.18-19.77,2.63-4.14,5.42-7.76,8.45-11.68,1.24-1.6-3.64-11.36-4.4-8.86,5.3-3.18,10.58-6.7,16.72-9.55,13.81-6.65,27.57-13.53,38.25-24.02,2.03-1.2,3.41-3.29,5.71-4.06,1.63,4.53,1.67,8.94-.62,13.19v-.03Z"/><path class="cls-6" d="m329.56,121.29c4.43-1.24-.36,50.8-3.9,50.14-4.04-1.72-8.06,1.83-9.05,6.25-.74,3.3-4.61,6.75-8.15,6.71s-5.7-5.22-3.34-8.01l-6.86-2.52c-2.67-5.14-13.26-12.18-18.83-15.27-.43-3.34,1.04-5.49,1.29-8.04l12.53-6.38c3.52-1.79,7.54-3.94,8.12-8.59-3.41,1.13-19.67,11.22-21.5,7.33-.31-.66-.13-1.56-.23-2.3,1.02-1.61,2.63-4.02,2.94-5.98,15.24,3.31,6.83,2.96,16.02-.88,3.96-1.65,7.31-3.08,10.37-6.23.23,3.68-2.86,4.7-4.17,7.43-1.74,3.63.43,10.47,4.86,11.29,2.78.52,6.19,1.1,8.64.79,8.7-1.09-.09-25.88,11.28-25.75h-.02Z"/><path class="cls-9" d="m382.59,258.53l1,17.92v9.3l-1.18,5.76-1.67,5.1c-1.44.14,0-1.99.14,1.12-1.64,2.74-1.76,5.84-2.38,8.91l-9.62,18.23c-3.59,6.8.52,16.43,3.57,22.78,1.07,2.22,4.74,2.95,2.98,7.24-.49,1.2.94,3.12,2.18,2.94-1.76,2.55-4.72,4.24-7.8,5.81l-18.52,9.46c-5.53,2.82-11.2,5.25-15.72,9.16-3.11-1.12-8.5-2.45-8.07-6.46,8.24-8.15,24.6-15.28,36.37-21.44-1.98-7.31-3.57-13.63-4.78-20.94-2.69,2.17-4.54,2.95-6.45,4.07-.05-2.68-3.95-3.88-3.66-6.99.11-1.16,3.31-2.48,1.6-3.85,20.49-17.2,20.97-40.93,21.84-66.12,1.38.1,2.86.12,4.51-.52,1.87-1.25,3.77-1.64,5.67-1.46v-.02Z"/><path class="cls-4" d="m280.73,150.56c-.25,2.55-1.72,4.7-1.29,8.04,5.58,3.09,16.16,10.13,18.83,15.27l6.86,2.52c-2.36,2.79-.03,7.97,3.34,8.01,3.54.04,7.41-3.41,8.15-6.71.99-4.42,5.01-7.97,9.05-6.25l.03,1.08c-1.2-.32-1.53,1.31-.13,1.16.22,2.29-4.68,16.01-6.8,19.94-2.65,1.21-3.76,4.44-4,7.22.17.72-.81,1.2-.92,1.72-4.43-.21-8.48,1.09-11.98,4.02-6.56-1.26-12.7-5.3-12.68-11.79,0-1.23,2-3.05,2.49-4.12,1.07-2.35,4.76-5.42,6.94-6.9,1.02-.69,2.33-1.67,2.85-2.81-.63-.64-2.52-.56-2.73.17-.11.4-.28.91-.39,1.43-3.91,3.06-8.72,4.19-13.02,6.13-.52-.41-1.27-1.35-2.32-1.47-4.67-.53-8.32-2.89-12.62-4.32-5.39-1.26-8.88-1.6-7.02-8.48,1.8-2.42,2.44-6.38,4.02-8.91,2.06-3.3,4.38-6.96,6.23-10.54s4.86-3.28,7.1-4.42h0Z"/><path class="cls-12" d="m332.24,407.7c-.95,4.53-4.53,3.88-4.47,8.37.05,3.13,4.3,1.75,6.37,5.53s-7.08,13.54-9.39,17.65c4.36-.16,6.48-3.59,8.67-5.83,2.6-1.57,6.22-2.99,9.13-3.6.75-.16,1.59.76,3.08-.17,10.23-6.35,14.77,9.89,19.93,8.22l9.28-3c.13,1.61-1.72,2.02-3.25,2.72l-36.82,14.93c-10.71,4.34-19.36,10.14-27.18,19.6-2.1-24.89,6.51-49.44,24.64-64.42h0Z"/><path class="cls-11" d="m227.41,281.4c.88.02,1.34,1.05.77,1.72-9.8,11.51-16.88,26.76-15.74,42.49,1.77,24.4,15.55,50.1,29.85,68.66.12.15.19.33.21.51l1.29,1.92c-2.22-.36-4.37,1.06-5.44,3.32-.25.52-1.43-.04-1.94-.3-1.88-.93-4.11-4.04-5.77-3.37-.4.16-1.37-1.09-1.67-1.39-5.6-5.52-8.49-13.08-12.15-20.35-11.27-22.69-17.67-48.1-18.33-73.33-.03-1.29,1.85-1.49,2.09-.22l.97,5.12c.04.24.16.46.35.61,3.17,2.51,7.87-1.88,8.77-5.31,1.99-7.5,6.13-13.62,10.47-19.79.2-.29.54-.46.89-.45l5.39.15h-.01Z"/><path class="cls-4" d="m235.65,104.61c-.66,1.85-.29,4.23-1.06,6.01-.6,1.38-.56,2.76-.98,4.15-2.9-.59-2.31,4.97-3.65,4.66l-3.36-.77c2.3.53-16.05,9.13-18.82,8.4-1.71-.45-12.99-7.39-13.35-10.07-.34-2.51.23-4.64,2.29-6.29,3.58-2.86,6.12-6.39,9.34-9.63,2.57-2.59,4.77-5.95,2.24-9.45-.45-.63-2.1-.15-2.5-.23.57-1.95,2.13-3.15,3.88-4.65l37.69-32.31c3.62-3.1,6.29-6.77,10.21-8.74-1.22,1.54-.96,3.9-3.34,5.68-21.26,15.97-8.64,15.77-13.24,19.56-2.32,1.91-3.85,4.24-5.82,6.23-8.84,8.91-16.95,11.54-15.58,18.88.51,2.75,3.82,4.22,7,5.63s5.64,4.02,9.06,2.92v.02Z"/><path class="cls-1" d="m286.96,374.57c6.41.92.69,1.22,7.9,5.95-10.37,14.12-17.32,31.15-21.78,47.77-2.4.46-2.73,3.41-4.94,4.64-1.74.97-3.94,1.52-3.6,3.58-8.88-9.54-20.6-20.05-27.51-30.87-.28-.45-.84-.7-1.22-1.07-1.07-2.1-2.68-3.84-4.06-5.75-.2-.52-.57-.94-1.06-1.2l-.82-2.04c1.87-2.54,6.08,5.59,7.94,4.14,1.39-3.5,4.12-5.51,7.08-3.05,2.84,2.07,6.54,2.49,9.72,3.98l-.07,7.82c2.31,4.02,5.61,6.73,9.17,10.05l11.45-27.21c2.05-4.88,1.1-11.65,1.5-16.77,2.84.26,5.76.29,8.41-.83.08.46.12,2.02,1.01,1.73.46-.15.62-.91.89-.87h-.01Z"/><path class="cls-9" d="m176.64,301.69c-1.45-3.2-5.98-2.5-7.78-4.12-3.13-2.81-1.6-10.89-5.33-11.91l-6.12-1.69c-2.5-2.97-5.9-4.24-8.44-6.9-1.66-1.73-11.01-19.9-10.97-19.78l-3.34-9.54c-1.08-3.09-2.78-4.81-3.27-8.11-1.53-10.22-.85-20.11,3.9-29.46,1.17-2.3,3.13-3.02,5.71-2.02.42-1.83.68-3.28,1.63-4.35.84,3.97.8,8.12,1.18,12.59,1.54,18.22,6.6,35.36,15.36,51.34l14.52,26.49c1.38,2.53,2.67,4.92,2.95,7.45h0Z"/><path class="cls-9" d="m201.23,141.62c-1.85,1.6-1.58,4.27-1.65,7-.31,11.57.44,22.82,4.77,33.56,1.46,3.63,3.75,6.7,4.24,10.33.03.6.45,1.06.97,1.62.37.4.72.77,1.03-.02.22-.57-.09-1.21.09-1.48.62-.93,2.12-1.17,2.8-1.97,2.11.02,4.51-.52,6.23.94-1.1,2.82-2.79,5.52-4.9,8.33-11.65,15.5-20.66,32.36-26.11,51.06-2.8,9.61-1.97,18.96-4.1,29.38-13.53-19.69-26.81-48.04-28-69.86,2.29-.03,1.93,2.02,2.02,4.09.3,6.84,3.13,12.86,4.78,19.52,16.65,5.69-5.75,22.34,18.67,19.17l6.68-19.67c3.62-10.66,16.37-22.86,12.52-36.91-1.64-6-3.02-12.11-5.69-17.35.84-4.49-1.1-9.11-1.18-13.98-.16-10.75,4.03-20.43,5.98-30.47.41-.16,1-.91,1.22-1.28h1c-1.13,2.23-1.89,5.5-1.36,8h-.01Z"/><path class="cls-13" d="m250.34,202.53c-.45,8.59,10.72,8.66,14.84,13.34,2.82,3.2,5.55,4.41,8.95,6.33,15.93,8.99,18.7-7.13,24.35-4.11,1.34.72,3.01,1.75,3.04,3.51-.93,1-2.04,1.91-2.76,3.08-6.01,2.77-8.18,11.79-17.25,7.57l-7.81,4.81c-1.82,1.12-22.18-3.43-18.36-1.79-1.02-.44-1.71-1.46-1.75-2.86,2.45-.54,5.26-1.03,6.61-3.75l-10.2,1.42c-7.04.98-13.91.87-20.59,1.77-1.13-.21-2.78-.32-3.33-1.22-.71-1.15-.47-2.96.33-4.24,6.82-10.92,11.69-22.77,23.92-23.87h.01Z"/><path class="cls-13" d="m200.38,134.9c-1.96,10.04-6.15,19.72-5.98,30.47.07,4.87,2.02,9.49,1.18,13.98-3.7,1.1-7.22-2.63-10.9-2.57s-5.84.88-9.46-.57c-2.71-1.09-5.97-.44-8.11-2.88-3.75-4.3,1.57-14.08-5.5-17.53,1.79-14.52,17.53-37.65,27.79-47.96.32,4.04-8.25,11.84-10.69,17.07-1.25,2.68,2.01,5.92.76,8.5l-6.92,14.27c-1.48,3.06-1.85,6.82,1.15,9.83,5.21-5.44,8.93-12.49,15.58-14.34l7.63-2.12c.67-2.55.98-5.96,3.48-6.14h-.01Z"/><path class="cls-7" d="m291.68,190.66c-.49,1.07-2.48,2.89-2.49,4.12-.02,6.49,6.12,10.54,12.68,11.79,3.5-2.93,7.54-4.23,11.98-4.02-1.57,7.52-7.15,13.47-12.33,19.04-.03-1.76-1.7-2.8-3.04-3.51-5.64-3.02-8.42,13.1-24.35,4.11-3.41-1.92-6.14-3.14-8.95-6.33-4.12-4.68-15.29-4.75-14.84-13.34,2.32-.21,4.8-1.65,7.65-1.71,12.33-.25,23.37-4.45,33.69-10.16h0Z"/><path class="cls-9" d="m284.83,325.64l.64,12.77c-1.2.17-.94,1.55.19.77l14.99-11.4c1.38,2.72-.01,6.27,2.93,8.04-3.15,3.67-7.64,7.06-11.92,9.78-.34.22-1.95.45-1.47.27,4.56-1.73-.87,1.04-.67,1.77-1.26.24-4.37,2.75-4.97,4.01-.74-.61.41-1.06.11-.4-.24.53-.03,1.1-.02,1.57-5.56,1.98-7.92-1.09-9.24,3.86-5.22.34-9.28,4.89-13.71,7.77-5.21,3.39-7.7,7.42-7.31,13.16-2.34-1.42-5.03.36-7.81-.76-2-3.27.2-17.11-1.97-16.23,0-10.57,2.81-11.14-1.98-12.11-.38-.17-.65-.65-1.04-.78-.66-1.48-1.79-3.5-.58-5.27,1.26-1.7,3.86-.07,5.65,0,.34.7.96,1.12,1.5,1.2,1.16.19,2.63.17,2.44-1.19.63-1.1,1.82-1.64,3.01-1.94,1.64,1.67,4.28,2.46,4.09,5.11-3.29,2.77-3.91,7.36-2.59,11.51,5.01-3.3,20.67-10.51,20.26-15.76-.12-1.53.49-3.15.21-4.67-.54-2.91.44-5.25.06-8.31-.18-1.42.14-3.48.1-4.89,4.11-.68,3.53,2.42,9.11,2.13h-.01Z"/><path class="cls-8" d="m441.46,201.75c-2.38-1.37-.35-10.35-1.77-11.07-2.44-1.23-6.97,4.12-8.09,3.9l-.36-34.5c-17.73-8.08-8.58-31.44,9.53-26.56,12.06,3.2,12.39,21.07,1.43,25.88l-.74,42.34h0Zm.46-55.13c0-3.23-2.61-5.84-5.84-5.84-7.73.27-7.73,11.42,0,11.68,3.23,0,5.84-2.61,5.84-5.84Z"/><path class="cls-2" d="m268.82,249.89c-10.02-5.49-19.65,6.82-25.1,7.52-3.96.5-13.56-13.99-14.39-17.95,4.39-2.79,9.34-3.71,14.31-4.82l9.95-2.21c.04,1.4.73,2.42,1.75,2.86-3.82-1.65,16.54,2.91,18.36,1.79l7.81-4.81c9.07,4.21,11.24-4.8,17.25-7.57-3.65,5.99-9.57,10.2-14.93,15.15-2,1.85-13.11,11.18-15.01,10.05h0Z"/><path class="cls-8" d="m287.21,35.83c3.75,10.1,4.5,20.57,4.38,31.74-.07,7.05,1.69,14.08.88,21.16-.94,8.28-1.06,16.77-3.35,24.73-2.12,7.37-5.39,13.98-6.55,21.18-.31,1.96-1.92,4.37-2.94,5.98-.25-1.74-1.91-2.32-3.38-1.96-3.62.88-3.83,9.14-6.55,8.11,8.9-17.57,20.96-53.39,19.05-74.17-.31-5.28,1.46-10.5-1.37-15.89l-7.14,33.95c-1.93,9.18-16.74,45-23.38,51.05.44-1.96,1.44-3.77,1.55-5.81,10.36-15.79,16.49-33.77,21.28-52.41,4.95-19.29,3.86-27.7,6.71-46.83-1.37-1.81-.33-2.5.8-.83h0Z"/><path class="cls-2" d="m298.63,183.77c-2.18,1.48-5.87,4.55-6.94,6.9-10.33,5.71-21.37,9.91-33.69,10.16-2.85.06-5.34,1.5-7.65,1.71-12.24,1.1-17.11,12.95-23.92,23.87-.8,1.28-1.04,3.09-.33,4.24.55.9,2.2,1.01,3.33,1.22-1.92,1.93-4.7,2.76-7.68,3.68-.29-3.39.83-5.74,1.97-9.29-1.56-1.16-3.47-.59-5.08-.68,5.31-13.32,15.79-24,24.33-35.33,6.65,1.43,3.87,4.63,8.89,4.27l20.94-1.52c5.16-.38,8.71-2.55,12.57-4.29,4.29-1.94,9.11-3.07,13.02-6.13l.26,1.21-.02-.02Z"/><path class="cls-8" d="m379.49,123.6c.06,2.68.18,8.24.06,12.12-6.36,1.15,4.44-21.48-7.74-16.89-1.11,15.73,1.11,28.59.92,43.8l-2.14.11c.11-9.2-.19-18.39-1.1-28.15-.47-5.03,1.64-11-.3-15.45-2.8-3.13-7.11-5.43-8.22-10.06-1.79-7.5,2.35-14.49,9.43-16.24,16.03-3.57,24.08,16.42,9.75,25.21-1.24,1.23-.69,4.22-.66,5.55h0Zm.26-17.94c0-3.2-2.59-5.79-5.79-5.79-7.67.26-7.67,11.33,0,11.59,3.2,0,5.79-2.59,5.79-5.79h0Z"/><path class="cls-10" d="m188.74,233.61l-6.68,19.67c-24.42,3.18-2.02-13.48-18.67-19.17-1.64-6.66-4.48-12.68-4.78-19.52-.09-2.07.27-4.12-2.02-4.09-.11-2.63-.7-5.26-.31-7.88.24-1.65.51-3.33.32-5,2,1.61.58,4.62,2.12,6.87,9.62,6.35,2.07,14.02,10.16,20.89,1.3,1.1,2.1,4.44,4.17,4.7,5.61.69,10.7,1.73,15.7,3.53h-.01Z"/><path class="cls-4" d="m258.42,135.9c-.1,2.04-1.11,3.84-1.55,5.81-.18.78-.84,1.42-1.29,2.04-8.58,3.51-9.84,13.27-16.05,10.78-4.52-14.35-6.28-29.01-3.94-43.92.17-1.11,1.56-2.17,2.2-2.97.46,2.29,2.37,14.63,3.63,15.79.79.73,3.78-.19,4.39.8,2.08,3.35,4.41,5.55,7.29,8.11,1.74,1.54,2.22,5.07,5.31,3.55h0Z"/><path class="cls-2" d="m235.59,110.62c-2.33,14.91-.58,29.57,3.94,43.92.84,2.68,3.04,3.79,5.93,4.21-4.81,10.32-13.51,18.8-20.88,27.92-1.63,2.01-2.98,4.23-4.88,4.92-1.71-1.46-4.12-.92-6.23-.94l15.6-18.37c10.09-14.91-4.84-26.3,4.53-57.5.42-1.4.38-2.78.98-4.15h1.01Z"/><path class="cls-1" d="m333.42,433.42c-2.19,2.24-4.32,5.67-8.67,5.83,2.31-4.11,11.36-14.06,9.39-17.65-2.07-3.78-6.33-2.39-6.37-5.53-.06-4.49,3.52-3.85,4.47-8.37,4.98-6.56,12.51-10.45,19.41-14.59.77-2.5,5.64,7.26,4.4,8.86-3.03,3.93-5.83,7.54-8.45,11.68-4.19,6.6-18.06,17.59-14.18,19.77h0Z"/><path class="cls-10" d="m407.72,324.57c-4.15,13.82-15,26.08-28.04,32.27-.45.21-3.18,2.12-3.27,2.7-.33.08,1.53-1.75,1.2-1.7-1.24.18-2.67-1.74-2.18-2.94,1.76-4.29-1.91-5.02-2.98-7.24,1.28.1,2.63-.11,3.95-1.17,8.51-6.8,16.74-14.27,21.33-23.86.77.69,1.05,1.78,1.98,2.82,2.9-.46,5.43-.97,8.01-.87h0Z"/><path class="cls-1" d="m388.59,425.93c-2.12.76-5.33,5.3-7.8,5.9-1.62-.1.92-.29-1.2.94,1.31-.76-9.42,6.75-4.75,2.1l-9.28,3c-5.16,1.67-9.7-14.57-19.93-8.22-1.49.93-2.33.02-3.08.17,7.14-5.79,19.8-6.88,31.38-10.95,2.82-.99,7.48.81,9.07,3.07,1.67,2.38,2.88,3.98,5.59,3.97v.02Z"/><path class="cls-8" d="m413.43,240.22c-.21,3.11.4,30.57.45,34.41-2.63.11-5.33-1.91-7.7-.32-3.45,2.32-1.36,6.33-3.43,9.24l-.95-42.86c3.97,1.4,8.43,1.72,11.63-.47h0Z"/><path class="cls-4" d="m378.37,161.62h2.22l1,3.19c-.1,7.99.25,28.67-.24,36.44-4.32-.47-4.35,2.58-9.23,1.89-1.33-5.36-.73-10.81-1.48-15.97l-.04-8.52v-15.9l2.13-.11,5.65-1.02h-.01Z"/><path class="cls-1" d="m316.48,400.62c-5.37,8.03-10.75,16.93-14.02,26.09,0-.4.29-1.27.02-1.56-.65-.7-1.93-.32-2.92-.64l-6.77-2.19c3.65-11.3,9.22-23.11,18.44-30.79,1.83,6.24,4.15,5.25,5.25,9.09h0Z"/><path class="cls-2" d="m441.32,239.35c.49,2.25.92,4.44.86,7.28l-.41,21.22c-5.59-.95-5.4,1.96-10.18,1.86l-.15-35.24c3.21-1.3,1.06,5.85,2.84,7.6,2.83-1.08,4.63-2.75,7.04-2.72Z"/><path class="cls-7" d="m280.73,150.56c-2.24,1.14-5.27.88-7.1,4.42s-4.17,7.23-6.23,10.54c-4.83-2.77-4.21-7.38-2.19-11.05,6.41-11.62,2.47-3.07,2.65-4.76.9-.36,1.45-1.2,1.82-2.08.1-.25-.09-.62.03-.86,2.71,1.03,2.92-7.23,6.55-8.11,1.47-.36,3.13.22,3.38,1.96.1.74-.08,1.64.23,2.3,1.83,3.89,18.09-6.2,21.5-7.33-.59,4.65-4.61,6.8-8.12,8.59l-12.53,6.38h.01Z"/><path class="cls-13" d="m266.51,154.58c-.77,4.12-3.95,8.16.88,10.93-1.57,2.53-2.22,6.48-4.02,8.91-4.36,3.33-5.93,8.97-9.7,13.38-1.77,2.07-2.45,4.3-1.84,6.71-5.02.37-2.24-2.84-8.89-4.27,7.79-10.34,14.08-21.98,21.47-33.01.81-1.2.17-3.29,2.09-2.65h.01Z"/><path class="cls-14" d="m379.55,135.72c0,.24-.52-1.14-.42-.92.55,1.18,1.56,5.07,1.46,6.82-.39,6.64-.5,13.47-2.22,19.99l-5.65,1.03c.2-15.21-2.02-28.07-.92-43.8,12.18-4.59,1.38,18.04,7.74,16.89h0Z"/><path class="cls-11" d="m335.57,382.26c-6.6,5.71-14.16,11-19.08,18.36-1.1-3.84-3.42-2.84-5.25-9.09-1.07-3.37,18.33-17.78,16.26-15.74-.43,4.01,4.96,5.35,8.07,6.46h0Z"/><path class="cls-4" d="m441.59,201.71l.08,17.17c-2.57-2.94-2.8-2.2-5.78-.4-1.81.8-3.03-.95-4.3-1.51l-.02-22.54c1.14.23,5.75-5.21,8.22-3.96,1.45.73-.61,9.85,1.8,11.25h0Z"/><path class="cls-13" d="m326.76,223.65c1.18,9.21,12.33,9.66,12.91.12,1.79,1.55,4.69,1.79,6.88,1.86-.61,7.84-2.14,6.45-7.97,12.17-3.15-.27-6.77-.29-9.86-.09-6.85-2.39-2.44-2.06-4.01-1.96.94.1,1.99,2.18-2.19-2.11-1.86-4.04-2.79-7.8-1.77-12.04,1.96.89,3.77,2.27,5.99,2.06h.02Z"/><path class="cls-2" d="m401.4,227.76c-.47,6.99,9.4,7.85,12.54,1.96l6.95-.6c-.78,16.27-26.28,17.62-26.54,1.63.29-2.59.32-7.54,1.04-4.7,5.12-9.19,7.44-5.39,6.01,1.71h0Z"/><path class="cls-2" d="m381.43,222.8c-.03-7.24,0-16.6,1.04,5.97.17.46.12,1.24.12,1.75v6.28l-.22,4.84c-3.65.22-7.15,1.68-10.78.78l-.09-31.86c1.96-1.46.58,10.84,1.41,13.19,3.19-.47,5.78-1.62,8.52-.95h0Z"/><path class="cls-10" d="m441.59,267.99v19.73c-1.63.42-4.4,1.35-6.66,2.85-1.76-.6-3.47-2.18-3.34-3.89l-.04-16.86c4.71.11,4.65-4.47,10.04-1.83Z"/><path class="cls-13" d="m441.68,218.65l-.13,5.93c-1.82,2.39-1.84,6.68,0,9.06.26,1.83-.47,3.97-.09,5.7-2.41-.03-4.22,1.63-7.04,2.72-6.12,8.98.02-6.16-2.84-7.6l.17-17.7c1.25.56,2.45,2.27,4.23,1.49,2.93-1.77,3.17-2.5,5.69.4h.01Z"/><path class="cls-10" d="m382.36,241.62c-.27,5.59.11,11.28.17,16.92-1.84-.17-3.74.21-5.61,1.46-1.64.64-3.13.62-4.51.52.3-6.02-.8-11.93-.82-18.13,3.62.91,7.11-.56,10.76-.77h.01Z"/><path class="cls-2" d="m412.68,305.39l-.71,3.22c.07,4.68-1.6,9.61-3.22,14-.97-.24-1.68.89-.36.98-.13.36-.57.62-.68.98-2.58-.1-5.11.41-8.01.87-.93-1.05-1.2-2.14-1.98-2.82,2.41-5.04,2.79-10.93,4.74-16.14,2.49,2.29,8.24,2.39,10.21-1.08h0Z"/><path class="cls-4" d="m278.55,274.62c3.73,0,6.71,2.23,10.27,3.09.08.32.6.52.77.79.34,2.15,1.76,3.97,1.82,6.18-1.57,1.08-5.19,1.47-6.83.02-3.5-3.11-7.6-2.99-11.11.1-1.97,1.74-5.5.78-6.8-1.23,3.07-7.35,3.65-5.21,9.94-8.96h1.96-.02Z"/><path class="cls-13" d="m320.73,294.58c-1.74.06-3.48.03-5.21-.16.11-2.01-.44-4.18-2.4-4.87-2.29-.81-3.56,1.35-5.31,2.1-1.87.8-3.91,1.22-5.23,3.06-1.43-1.98-.64-3.99-.92-6.26,2.66-3.83,6.63-6.78,11.43-6.09,4.39.63,8.69,4.42,9.36,9.22.22,1.58-.86,2.65-1.72,3Z"/><path class="cls-7" d="m413.4,274.55l-.13,16.42c-3.81.1-5.75-.38-7.8-.49-1.42.51-1.29-2.09-2.62-3.67l-.12-3.34c1.86-4.92-.39-6.81,3.28-9.23,2.42-1.6,4.77.18,7.38.32h0Z"/><path class="cls-2" d="m338.59,254.38v15.29c-2.83-1.14-6.91,1.85-9.73,3.06.02-.97-.27-4.97-.1-6.13l-.17-5.89v-2.15c4.36.08,5.92-4.42,10-4.17h0Z"/><path class="cls-8" d="m250.72,323.63c2.13.17,2.27.77,3.48.72,2.76,1.46,5.7,2.56,6.32,8.13-3.57,1.2-6.62-1.35-10.09-1.82.04-2.96-7.3-1.27-10.95-3.04.46-.88.89-1.78,1.26-2.71.53,0,1.27-.06,1.77-.23,2.65-.91,5.41-1.28,8.2-1.05h0Z"/><path class="cls-1" d="m197.64,439.64c-3.86-.68-15.65-8.11-20.21-11.02-13.89-8.88-26.87-19.21-36.65-32.09,10.16,7.79,12.12,12.56,24.51,21.52l11.54,8.34c6.21,4.49,13.04,7.68,19.81,11.23.94.49,1.09,1.39,1,2.02h0Z"/><path class="cls-1" d="m140.5,395.74c-8.25-6.04-21.3-28.57-25.9-38.16,1.43.43,3.04,1.38,3.59,3.24,1.03,3.46,3.52,5.93,5.04,9.01,7.2,14.59,14.88,19.64,17.26,25.91h0Z"/><path class="cls-6" d="m329.61,119.63c-.3-.24-1.17-.83-1.25-1.74-1.19-15.23-4.6-29.85-9.65-44.28-.23-.66-1-1.17-.94-1.63.06-.51-.17-1.65.81-1.56,6.67,13.29,9.09,28.59,11.48,43.74.34,2.16.51,3.96-.45,5.48h0Z"/><path class="cls-13" d="m255.59,143.75c1.5.98-8.47,16.55-10.12,15-2.9-.42-5.09-1.54-5.93-4.21,6.21,2.48,7.47-7.28,16.05-10.78h0Z"/><path class="cls-1" d="m240.43,457.44c-8.97-4.23-28.38-11.54-37.92-15.3-1.51-.57-3.64-.76-3.38-2.49,12.11,3.49,23.67,8.85,35.96,13.16,1.78.63,5.02,3.22,5.34,4.63h0Z"/><path class="cls-10" d="m242.78,334.46c-.84,3.14,1.08,5.53,2.98,7.9-1.53-.52-3.85-1.26-4.77.09-1.22,1.78-.09,3.8.58,5.27-4.41-1.53-6.23-6.46-5.97-10.95l.28-1.07,6.9-1.24h0Z"/><path class="cls-13" d="m250.43,330.65c-3.22-.61-6.09.97-7.65,3.81l-7.18,2.32c-.11-.9-.02-3.07.09-3.97.84-.41-.19.69-.11-.15.05-.58.9-2.29.9-2.87,1.05-3.12,3.46-4.39,4.27-4.89,3.65,1.78,9.73,2.79,9.69,5.75h-.01Z"/><path class="cls-10" d="m244.64,361.04l.03,37.33c-.53-.39-1.45-.98-2.1-1.08l-.13-1.16c.65-.6,1.2-1.56,1.2-2.93v-40.48c-.01-1.75-.45-3.13-1.06-4.22,4.97,1.01,2.05,1.59,2.06,12.55h0Z"/><path class="cls-6" d="m317.66,67.63c-1.47.35-1.93-.99-2.56-2.39l-9.41-20.86c2.75-.48,11.07,20.69,11.97,23.25Z"/><path class="cls-8" d="m351.51,171.63c-6.37,6.45-6.74,15.48-1.86,23.09-3.65-1.79-4.22-5.96-6.21-9.27.35-1.24.46-3.46.05-4.69,1.44-1.3,1.69-3.29,2.02-5.12,1.4-.95,3.58-2.4,4.28-4.02h1.73-.01Z"/><path class="cls-13" d="m291.4,284.68l1.15.03c-.46,2.16.11,4.55,0,6.73l-1.07.1c-1.92-.72-4.6-1.6-6.7-1.09l-.2-5.76c1.64,1.46,5.27,1.06,6.83-.02h-.01Z"/><path class="cls-8" d="m380.59,141.62v20h-2.22c1.1-6.67-1.22-13.69,1.22-20h1Z"/><path class="cls-10" d="m261.46,338.44c-.04.33.29.69.27,1.02l-.16,2.14c-1.61,1.17-2.36,2.74-3.88,4.03.19-2.65-2.45-3.44-4.09-5.11.2-1.06.55-2.08,1-3.05,2.22.78,4.52,1.5,6.87.97h0Z"/><path class="cls-8" d="m156.59,197.62c.19,1.67-.08,3.35-.32,5-3.07-7.21-.6-16.99-.64-14.2,1.96,2.55.6,6.12.96,9.2h0Z"/><path class="cls-6" d="m306.6,45.03c-1.84,1.46-8.54-11.19-8.62-12.54,3.43,1.45,7.44,9.14,8.62,12.54Z"/><path class="cls-1" d="m247.5,461.42c1.93.93-11.49-5.79-7.05-4.78,2.81.6,5.88,2.06,7.05,4.78Z"/><path class="cls-7" d="m314.77,200.84c.24-2.78,1.35-6.01,4-7.22-1.28,2.37-.56,6.51-4,7.22Z"/><path class="cls-2" d="m441.68,233.65c-3.53-2.66-1.83-6.67,0-9.06-.06,2.99-.41,6.08,0,9.06Z"/><path class="cls-9" d="m178.63,306.64c-4.91,1.45-1.7-5.63-3.01-4.95,1.02-.53,3.12,3.34,3.01,4.95Z"/><path class="cls-8" d="m155.72,181.78c.01-1.12-.5-2.81.83-3.38.51.51.97,1.19,1.07,1.75.21,1.23-.83,2.2-1.9,1.63Z"/><path class="cls-12" d="m382.64,430.57c-1.01.24-1.29,2.19-3.05,2.2-.52-2.39,1.43-2.3,3.05-2.2Z"/><path class="cls-1" d="m258.8,483.7c-.19-1.38-.2-2.78,0-4.17,1.09,1.19,1.11,2.98,0,4.17Z"/><path class="cls-13" d="m193.59,103.48c.22,1.58-.31,2.42-2.09,2.13-.3-1.59,1.54-1.45,2.09-2.13Z"/><path class="cls-9" d="m182.49,317.79c-.49.4-1.07.21-1.38-.17-.63-.77-.24-1.61-.16-2.3.84-.69,1.24.49,1.41.97.19.56.04,1.08.14,1.5h-.01Z"/><path class="cls-9" d="m180.5,310.78c-.63.48-1.47.03-1.88-.67-.31-.52-.04-1.89.88-1.63.55.69,1.06,1.34,1.01,2.3h-.01Z"/><path class="cls-11" d="m117.77,197.97c-.11.6-1.99,3.93-2.95,2.86-.36-.4,2.02-3.75,2.95-2.86Z"/><path class="cls-2" d="m215.31,231.36c.08.75-.92,2.3-1.7,1.35.35-.67.73-1.87,1.7-1.35Z"/><path class="cls-9" d="m405.6,360.77c.35-.36.57-.97,1.01-1.23-.33.41-.61.89-1.01,1.23Z"/><path class="cls-8" d="m267.86,149.7c.11-1.05.75-1.87,1.82-2.08-.37.87-.92,1.71-1.82,2.08Z"/><path class="cls-12" d="m188.7,345.65c-1.28-.16-1.27-1.26.04-1.08.08.34-.1.74-.04,1.08Z"/><path class="cls-9" d="m181.84,317.71c-1.45.34-4.38-6.54-1.34-6.93l1.34,6.93Z"/><path class="cls-6" d="m325.57,173.67c-1.4.15-1.07-1.48.13-1.16,0,.39-.16.78-.13,1.16Z"/><path class="cls-10" d="m408.4,323.59c-1.32-.09-.61-1.22.36-.98l-.36.98Z"/><path class="cls-7" d="m237.79,107.65c-.63.8-2.03,1.86-2.2,2.97h-1c.77-1.78.4-4.17,1.06-6.01.74-.24,1.56.15,1.85.66.46.82.14,1.65.29,2.38h0Z"/><path class="cls-2" d="m220.59,236.12c0,.65-1,.65-1,0s1-.65,1,0Z"/><path class="cls-13" d="m231.43,167.81c-.62,1.37-1.15,3.06-2.35,4.46l-15.6,18.37c-.68.8-2.18,1.04-2.8,1.97-.69-.08-1.39-.13-2.09-.12-.49-3.64-2.78-6.71-4.24-10.33-4.33-10.73-5.07-21.99-4.77-33.56.07-2.73-.2-5.39,1.65-7,2.08,9.79-3.16,10.43,1.17,23.94,2.44.48,4.73-.6,6.03.92,1.06,1.24,1.15,3.21,2.23,3.71,4.89,2.27,9.7-4.14,20.76-2.37h0Z"/><path class="cls-13" d="m202.59,133.62h-1c.33-1.76.9-3.94,2.67-5.13,1.49,2.77-.93,3.66-1.67,5.13Z"/><path class="cls-11" d="m350.58,326.64c1.72,1.37-1.49,2.7-1.6,3.85-.29,3.11,3.61,4.31,3.66,6.99-20.24,12.17-43.74,23.64-58.03,43.03-7.21-4.73-1.49-5.03-7.9-5.95.75-1.35.86-3.7,1.9-4.85,12.25-12.06,24.44-24.01,40.74-30.9.39-7.49-1.08-13.78.01-20.2,3.3-.18,6.57-1.05,9.32-2.9.51,5.65-.31,10.91.72,17.17l11.19-6.25h0Z"/><path class="cls-2" d="m361.01,241.62c.06,1.67.11,2.98.26,5,.21,2.74.1,5.24-.46,7-.51,1.6-.23,3.27-.13,4.88-2,2.45.82,6.31-8.98,7.34-.05-8.42-1.03-14.74-.78-22.06,3.34-.22,4.13-3.36,10.1-2.16h0Z"/><path class="cls-10" d="m405.24,375.78c2.24-1.68,5.07-4.84,6.27-7.06,4.99-4.47,8.35-10.59,12.34-16.33,3.17-4.57,3.39-9.28,5.26-14.12,1.33-3.46,4.85-12.42,5.68-11.05,2.53,8.51-.41,16.46-1.86,24.84-1.73,10.01-5.5,18.55-10.95,27.01-2.18,3.39-5.42,6.97-9.78,5.28-3.56-1.38-8.48-4.34-6.96-8.57h0Z"/><path class="cls-10" d="m380.75,296.62l.14,1.12"/><path class="cls-7" d="m263.38,174.42c-1.86,6.89,1.63,7.21,7.02,8.48,4.3,1.43,7.96,3.79,12.62,4.32,1.05.12,1.8,1.06,2.32,1.47-3.85,1.74-7.41,3.92-12.57,4.29l-20.94,1.52c-.61-2.41.07-4.64,1.84-6.71,3.77-4.41,5.34-10.04,9.7-13.38h0Z"/><path class="cls-7" d="m298.63,183.77l-.26-1.21c.11-.52.27-1.03.39-1.43.21-.73,2.1-.81,2.73-.17-.52,1.14-1.83,2.12-2.85,2.81h-.01Z"/><path class="cls-11" d="m254.35,377.61c.51,7.66.04,15.38-.03,23.04-3.18-1.49-6.88-1.91-9.72-3.98l-.03-36.05c2.17-.88-.03,12.96,1.97,16.23,2.78,1.13,5.47-.66,7.81.76Z"/><path class="cls-11" d="m284.86,369.89c.02,1.27.39,3.01.03,4.27-2.66,1.13-5.43.92-8.27.65.44-5.69-2.22-12.28-1.27-18.13,1.32-4.96,3.68-1.89,9.24-3.86l.27,17.06h0Z"/><path class="cls-2" d="m210.68,192.62c-.18.27.14.91-.09,1.48-.31.79-.67.42-1.03.02-.51-.56-.94-1.02-.97-1.62.7-.01,1.4.04,2.09.12Z"/><path class="cls-10" d="m250.59,342.47c.19,1.36-1.28,1.38-2.44,1.19-.54-.09-1.16-.5-1.5-1.2,1.31.09,2.63.1,3.94.02h0Z"/><path class="cls-10" d="m285.67,339.17c-1.13.79-1.39-.6-.19-.77l.19.77Z"/><path class="cls-8" d="m346.55,225.62c-2.19-.07-5.09-.31-6.88-1.86-2.18-1.89-3.11-4.74-6.53-4.39-2.67.28-4.76,1.95-6.39,4.27-2.23.21-4.04-1.17-5.99-2.06,2.11-9.03,12.16-12.15,19.42-7.69,4.71,2.56,6.75,6.87,6.37,11.72h0Z"/><path class="cls-7" d="m338.59,237.79c.6,5.55-.17,11.21-.17,16.73-4-.24-5.53,4.17-9.82,4.1l.14-20.92c3.09-.2,6.71-.18,9.86.09h-.01Z"/><path class="cls-13" d="m360.53,241.62c-3.45-.45-6.28,1.94-9.62,2.16.44-4.28-.42-8.81-.21-13.12,4.14.85-.78-6.51,5.44-8.06s4.19,13.07,4.4,19.02h-.01Z"/><path class="cls-14" d="m361.75,171.41l1.87.15c1.02,3.24,4.21,5.28,5.07,6.63l.1,9.19c-.29.74-1.08,4.18-2.99,5.04-10.71,4.8-1.35,49.64-8.35,34.15-.52-1.14-6.06,5.47-6.74,4.08-1.96-4.01,1.12-36.91-2.66-37.05-.02-1.04,2.4,1.89,1.77,1.12-6.36-7.76-5.51-17.57.86-24.02,3.31-.55,7.72,1.07,11.08.69v.02Zm-10.01,15.21c.25.27.72.51.86.87.16.44.25.46.57.89.5.69,1.01.97,1.66,1.04,2.7.26,5.34-.4,7.65-1.82.4-.24.72-.72.97-1.11.14-.22-.05-.63.03-.89,1.16-.16,1.38-1.12.18-1.06l-.05-2.7c0-.34.79-.6.9-.93.21-.63.03-1.02-.46-1.22-.45-.18-1.29.13-1.55-.08-.88-1.09-3.08-1.51-4.06-2.28-1.07-2.3-3.73-.9-5.19-.21-3.2,1.51-4.01,6.57-3.41,8.93.14.57,1.17.66,1.91.58h-.01Z"/><path class="cls-13" d="m381.39,200.8c.35,7.32.3,14.68.04,22.01-2.74-.67-5.33.48-8.51.95-.83-2.35.55-14.63-1.4-13.17l-.09-2.85c-.14-13.79-2.47-39.95,1.45-5.19,4.51.64,4.53-2.18,8.52-1.74h0Z"/><path class="cls-8" d="m368.81,177.41h0c0,.93-1.05,1.47-1.81.94-2.22-1.53-4.36-3.34-5.16-5.88,3.08.26-.24-3.94,6.07,3.82.34.42.9.58.9,1.12h0Z"/><path class="cls-8" d="m361.59,171.41c-3.02.37-6.12-.23-9.1.12,1.48-3.05,7.36-2.94,9.1-.12Z"/><path class="cls-13" d="m260.52,332.47c.22,1.99,1.19,3.91.94,5.97-2.34.53-4.65-.18-6.87-.97-.19-2.61-2.25-4.34-3.13-6.67,3.05.94,5.85,2.68,9.06,1.67Z"/><path class="cls-8" d="m358.42,177.32c-5.62-.23-7.69,4.8-6.69,9.3-.74.08-1.77-.01-1.91-.58-.6-2.36.21-7.43,3.41-8.93,1.46-.69,4.13-2.09,5.19.21Z"/><path class="cls-8" d="m363.61,181.83c-.89-.36-1.06-1.36-1.12-2.23.26.22,1.1-.1,1.55.08.5.2.68.58.46,1.22-.11.33-.9.59-.9.93h.01Z"/><path class="cls-8" d="m363.47,185.6l.18-1.06c1.19-.06.97.9-.18,1.06Z"/><path class="cls-13" d="m413.24,290.76l-.64,15.67c-.32.39-.86.65-1.11,1.09-1.97,3.47-6.57,1.23-9.06-1.06.62-1.66-.24-10.13.25-11.86,1.68-1.46,1.45,1.42-.04-.17-.06-2.55.32-5.11.17-7.64,1.57-.1,1.61,2.4,2.35,3.67,2.65-.26,5.51-.41,8.07.29h.01Z"/><path class="cls-5" d="m109.67,620.5c-3.06,1.08-6.82.75-10.15.05l-.04-26.53c0-4.02-2.7-7.19-7.18-7.02-3.18.12-9.02,1.36-10.85,4.29l-.8,30.03c-3.3.75-6.68.67-10.13.01v-39.96c4.04-1.2,7.91-1.13,10.43,2.77,18.92-11.14,24.26,1.83,28.04-.22,6.24-3.38,12.66-5.33,19.65-3.48,5.24,1.38,8.87,5.69,8.88,11.32l.03,29.03c-3.33.66-6.43.57-10.03.18l-.25-27.21c-.03-3-2.41-5.45-5.56-5.88s-9.95.49-11.22,3.76l-.81,28.85h-.01Z"/><path class="cls-5" d="m51.78,620.18c-12.45,4.42-26.58,3.04-37.93-2.86-.76-2.18,1.28-5.18,2.78-6.65,8.66,5.55,33.75,9.2,34.8-3.8.29-3.58-2.19-7.51-6.13-8.51l-19.74-4.99c-7.18-1.82-11.74-7.62-12.02-14.41s3.47-13.22,10.71-15.61c10.95-3.62,23.93-3.41,34.2,2.49,1.4.8-.8,5.18-2.24,5.5-7.95-2.79-31.67-7.36-31.45,5.69.24,13.94,36.19,3.32,38.11,26.27.6,7.23-3.12,14.07-11.09,16.9v-.02Z"/><path class="cls-5" d="m304.52,613.85l-.07-21.11c3.46-.21,6.56-.37,10.07-.08l-.16,25.89c-7.94,3.13-16.58,3.82-24.91,3.21-15.61-1.14-25.44-13-25.29-28.31.11-11.48,3.7-22.76,14.74-28.04,10.13-4.84,23.3-4.2,33.33.34,1.13,1.37-.49,6.15-2.09,5.96-4.58-.54-9.27-2.21-13.74-2.29-12.08-.2-20.55,8.18-20.88,20.15-.21,7.8.86,16.23,7.25,21.36,5.91,4.74,14,4.75,21.75,2.91h0Z"/><path class="cls-5" d="m411.16,620.74c-12.06-5.13-13.81-28.49-3.63-36.87,7.1-5.84,16.88-5.01,25.42-1.28l.48-20.49c3.6-.25,6.71-.57,10.08.23l-.19,58.03c-3.36,1.98-8.69,1.31-10.92-1.75-6.82,3.73-14.15,5.15-21.25,2.13h.01Zm22.36-10.35l-.17-21.09c-5.13-2.76-13.71-4.08-18.14,1.13s-4.51,15.75.07,21.08,13.73,3.62,18.24-1.12Z"/><path class="cls-5" d="m152.96,621.28c-6.07-2.12-8.87-7.56-8.23-13.14,1.53-13.35,19.23-11.66,29.43-11.56,1.57-5.49-2.17-9.91-7.66-10.45-5.05-.5-9.75.65-14.61,1.92-1.19-1.6-1.74-3.26-2.13-5.36,11.05-3.64,32.5-7.03,34.85,9.41,1.09,7.65-.98,15.52.83,23.24.37,1.59,4.41,4.55,1.23,6.18-3.87,1.99-9.14.16-11.56-4.15-6.62,4.05-14.18,6.7-22.15,3.91h0Zm21.06-10.47c1.77-2.74-.07-6.46.37-8.81-5.48-1.12-17.93-.92-19.02,5.09-.47,2.59-.49,5.97,2.38,7.3,4.81,2.23,13.03,1.44,16.28-3.59h-.01Z"/><path class="cls-5" d="m470.99,614.54c6.17,1.8,12.15-.28,17.75-2.39,1.89.44,2.97,4.07,3.02,6.18-14.29,6.91-38,5.14-40.18-14.03-.88-7.24.12-15.2,6.2-20.09,8.64-6.94,22.6-6.91,30.89.54,5,4.5,5.62,11.71,5.35,17.76l-31.16.19c-1.51,5.18,2.34,10.14,8.14,11.83h-.01Zm12.69-17.28c.63-16.55-22.94-14.69-21.32.26l21.32-.26Z"/><path class="cls-5" d="m329.78,621.41c-5.65-1.84-8.7-7.28-8.52-12.14.51-13.56,18.78-13.42,29.32-12.61,2.01-5.23-1.75-9.79-7.14-10.43s-9.85.83-14.93,2.25c-1.31-1.73-1.73-3.68-2.57-5.42,10.34-4.7,34.9-6.57,35.36,9.55l.62,22.16c.04,1.45,4.29,3.83,2.28,5.89-3.37,3.44-10.13,1.1-12.27-3.32-6.86,4.08-14.2,6.67-22.16,4.07h.01Zm20.94-10.57c1.74-2.59,0-6.38.29-8.65-5.52-1.31-17.82-1.25-19.07,5.17-.52,2.67-.41,5.98,2.72,7.28,4.86,2.01,12.87.96,16.07-3.8h0Z"/><path class="cls-5" d="m525.93,587.5c-5.24-.5-10.05,1.71-13.41,5.09l-.03,28.22c-3.25.8-6.58.66-9.97-.05l-.15-39.9c2.77-.48,5.42-.59,8.19.18,1.1.4.94,2.58,1.99,3.29,5.84-3.36,11.86-5.42,18.64-4.8,6.61.61,11.94,5.29,12.37,12.14.61,9.9.08,19.58.16,29.46-3.48.71-6.6.49-10.19.1l-.29-25.38c-.05-4.22-2.47-7.89-7.31-8.35Z"/><path class="cls-5" d="m257.23,615.14c1.53.29,1.32,3.81,1.53,5.54-4.84,1.69-9.82,2.08-15,1.33-15.46-2.24-8.1-22.41-10.44-33.21-.81-2.02-5.07-.58-6.57-1.56s-.61-4.36-.51-6.06l7.29-.81.16-10.08,10.17-2.21c.32,4.46-.45,8.21.48,12.51l12.95.53c.46,1.94.48,3.97.07,6.22l-12.98.24c-.56,7.37-.31,14.51-.17,21.93.07,3.46,2.37,5.74,5.62,6.01,2.35.2,4.47-.93,7.41-.37h-.01Z"/><path class="cls-5" d="m381.52,620.73c-2.71,1.04-6.36.63-10,.31l-.04-39.7c2.47-.59,5.12-.96,7.89-.46,1.26.34,1.22,2.62,2.4,3.81,5.05-3.53,10.73-5.83,16.93-4.26.31,2.91.53,5.79.16,9.22-4.16-3.13-14.63-2.08-16.3,3.92-2.42,8.69.39,17.89-1.05,27.16h0Z"/><path class="cls-5" d="m204.42,621.07c-3.36.49-6.56.14-9.9.09l.26-39.96c2.71-.27,5.64-.86,8.04-.07.82.59.98,3.74,2.21,3.56,5.16-3.54,10.5-5.59,16.44-4.31.11,2.61.5,5.15-.6,7.78-4.17-.45-13.24-.39-15.19,4.79-2.78,8.8.29,18.79-1.27,28.12h0Z"/><path class="cls-3" d="m433.69,610.39c-4.51,4.74-13.45,6.7-18.24,1.12s-4.69-15.63-.07-21.08,13.01-3.89,18.14-1.13l.17,21.09Z"/><path class="cls-3" d="m174.02,610.81c-3.25,5.03-11.46,5.82-16.28,3.59-2.87-1.33-2.85-4.72-2.38-7.3,1.1-6.01,13.55-6.21,19.02-5.09-.44,2.35,1.4,6.07-.37,8.81h.01Z"/><path class="cls-3" d="m483.68,597.52l-21.32.26c-1.61-14.95,21.96-16.8,21.32-.26Z"/><path class="cls-3" d="m350.72,610.84c-3.19,4.76-11.2,5.81-16.07,3.8-3.13-1.29-3.24-4.61-2.72-7.28,1.25-6.42,13.56-6.48,19.07-5.17-.29,2.27,1.45,6.06-.29,8.65h0Z"/><path class="cls-14" d="m413.89,229.62c.47-6.99-8.86-9.61-12.26-3.16l-6.96-.09c.57-9.58,10.67-13.74,18.16-10.6,4.93,1.97,7.39,6.52,8.1,10.87-.06,1.03.46,2.4-.81,3.24-4.14,1.78-6.41-.1-6.25-.25h.02Z"/></svg>